<svg width="32" height="32" viewBox="0 0 32 32" fill="none" xmlns="http://www.w3.org/2000/svg">
<rect width="32" height="32" rx="3" fill="#9AC3FF"/>
<path d="M5.332 12.736C5.252 12.736 5.164 12.68 5.068 12.568C4.972 12.448 4.924 12.304 4.924 12.136C4.924 11.968 5.184 10.848 5.704 8.776C6.232 6.704 6.496 5.412 6.496 4.9C6.496 4.756 6.504 4.664 6.52 4.624C6.544 4.576 6.604 4.552 6.7 4.552C6.796 4.552 6.9 4.64 7.012 4.816C7.132 4.992 7.192 5.18 7.192 5.38C7.192 5.916 6.896 7.272 6.304 9.448C6.24 9.672 6.16 9.976 6.064 10.36C5.968 10.736 5.888 11.04 5.824 11.272C5.76 11.504 5.692 11.744 5.62 11.992C5.476 12.488 5.38 12.736 5.332 12.736ZM12.2746 14.176C12.3306 14.176 12.3826 14.196 12.4306 14.236C12.4786 14.276 12.5026 14.324 12.5026 14.38C12.5026 14.5 12.3666 14.632 12.0946 14.776C11.8306 14.92 11.5626 15.084 11.2906 15.268C11.0186 15.452 10.8026 15.596 10.6426 15.7C10.4906 15.812 10.3786 15.868 10.3066 15.868C10.2346 15.868 10.1586 15.8 10.0786 15.664C10.0066 15.528 9.97056 15.388 9.97056 15.244C9.97056 15.1 10.1506 14.54 10.5106 13.564C10.8706 12.588 11.1066 11.948 11.2186 11.644C10.9146 11.98 10.5666 12.256 10.1746 12.472C9.79056 12.688 9.44656 12.796 9.14256 12.796C8.83856 12.796 8.54656 12.648 8.26656 12.352C7.98656 12.048 7.84656 11.736 7.84656 11.416C7.84656 10.896 8.02656 10.288 8.38656 9.592C8.74656 8.888 9.20256 8.276 9.75456 7.756C10.3066 7.236 10.8226 6.976 11.3026 6.976C11.6146 6.976 11.9026 7.104 12.1666 7.36C12.4386 7.608 12.5746 7.816 12.5746 7.984C12.5746 8.144 12.5226 8.224 12.4186 8.224C12.3226 8.224 12.1706 8.132 11.9626 7.948C11.7546 7.764 11.5626 7.672 11.3866 7.672C11.0346 7.672 10.6266 7.904 10.1626 8.368C9.70656 8.832 9.31856 9.368 8.99856 9.976C8.68656 10.576 8.53056 11.072 8.53056 11.464C8.53056 11.624 8.59056 11.768 8.71056 11.896C8.83856 12.024 8.97856 12.088 9.13056 12.088C9.63456 12.088 10.1746 11.832 10.7506 11.32C11.3266 10.8 11.7266 10.124 11.9506 9.292C11.9826 9.18 12.0506 9.124 12.1546 9.124C12.2666 9.124 12.3666 9.16 12.4546 9.232C12.5426 9.304 12.5866 9.396 12.5866 9.508C12.5866 9.612 12.5226 9.852 12.3946 10.228C12.2666 10.604 12.0226 11.28 11.6626 12.256C11.3026 13.224 10.9786 14.128 10.6906 14.968C11.4426 14.44 11.9706 14.176 12.2746 14.176ZM17.8449 7.168C17.8449 7.04 17.9049 6.976 18.0249 6.976C18.1209 6.976 18.2209 7.052 18.3249 7.204C18.4289 7.348 18.4809 7.5 18.4809 7.66C18.4809 7.708 18.0449 9.252 17.1729 12.292C17.0769 12.628 16.9649 12.796 16.8369 12.796C16.6609 12.796 16.5729 12.664 16.5729 12.4C16.5729 12.136 16.7049 11.588 16.9689 10.756C16.6409 11.388 16.2649 11.888 15.8409 12.256C15.4249 12.616 15.0329 12.796 14.6649 12.796C14.2969 12.796 13.9849 12.656 13.7289 12.376C13.4809 12.088 13.3569 11.776 13.3569 11.44C13.3569 10.944 13.4649 10.336 13.6809 9.616C13.9049 8.888 14.1529 8.268 14.4249 7.756C14.7049 7.236 14.9249 6.976 15.0849 6.976C15.1729 6.976 15.2489 7.024 15.3129 7.12C15.3849 7.208 15.4209 7.3 15.4209 7.396C15.4209 7.484 15.3089 7.748 15.0849 8.188C14.8689 8.628 14.6489 9.16 14.4249 9.784C14.2009 10.408 14.0889 10.98 14.0889 11.5C14.0889 11.684 14.1449 11.84 14.2569 11.968C14.3769 12.088 14.5209 12.148 14.6889 12.148C15.0889 12.148 15.5209 11.84 15.9849 11.224C16.4569 10.6 16.8489 9.928 17.1609 9.208C17.4729 8.504 17.6969 7.848 17.8329 7.24C17.8409 7.208 17.8449 7.184 17.8449 7.168ZM20.0351 8.14L20.0111 7.492C20.0111 7.22 20.0311 7.068 20.0711 7.036C20.1111 6.996 20.1511 6.976 20.1911 6.976C20.3031 6.976 20.4151 7.06 20.5271 7.228C20.6391 7.396 20.6951 7.576 20.6951 7.768C20.6951 8.28 20.6511 8.792 20.5631 9.304C20.8031 8.8 21.0591 8.368 21.3311 8.008C21.6031 7.64 21.8551 7.384 22.0871 7.24C22.3191 7.096 22.5271 7.024 22.7111 7.024C23.0631 7.024 23.2391 7.096 23.2391 7.24C23.2391 7.344 23.1151 7.448 22.8671 7.552C22.3951 7.736 22.0151 8.024 21.7271 8.416C21.4391 8.8 21.1551 9.3 20.8751 9.916C20.5951 10.524 20.3791 11.068 20.2271 11.548C20.0831 12.028 19.9751 12.364 19.9031 12.556C19.8311 12.748 19.7391 12.844 19.6271 12.844C19.5391 12.844 19.4631 12.788 19.3991 12.676C19.3351 12.564 19.3031 12.456 19.3031 12.352C19.3031 12.24 19.3271 12.096 19.3751 11.92C19.5991 11.184 19.7631 10.556 19.8671 10.036C19.9791 9.508 20.0351 8.876 20.0351 8.14ZM25.9445 6.976C26.3605 6.976 26.6805 7.148 26.9045 7.492C27.1365 7.836 27.2525 8.148 27.2525 8.428C27.2525 8.7 27.1645 8.956 26.9885 9.196C27.0605 9.276 27.0965 9.38 27.0965 9.508C27.0965 10.02 27.0525 10.504 26.9645 10.96C26.8845 11.416 26.8325 11.78 26.8085 12.052C26.7845 12.324 26.7565 12.516 26.7245 12.628C26.7005 12.74 26.6525 12.796 26.5805 12.796C26.4445 12.796 26.3565 12.668 26.3165 12.412C26.2765 12.148 26.2565 11.744 26.2565 11.2C26.0085 11.64 25.6925 12.016 25.3085 12.328C24.9325 12.64 24.5605 12.796 24.1925 12.796C23.8325 12.796 23.4845 12.656 23.1485 12.376C22.8125 12.096 22.6445 11.788 22.6445 11.452C22.6445 10.94 22.8205 10.332 23.1725 9.628C23.5325 8.916 23.9805 8.296 24.5165 7.768C25.0525 7.24 25.5285 6.976 25.9445 6.976ZM26.6285 9.052C26.6205 8.996 26.6165 8.864 26.6165 8.656C26.6165 8.44 26.5685 8.224 26.4725 8.008C26.3845 7.792 26.2485 7.684 26.0645 7.684C25.7605 7.684 25.3925 7.916 24.9605 8.38C24.5365 8.836 24.1685 9.368 23.8565 9.976C23.5445 10.576 23.3885 11.072 23.3885 11.464C23.3885 11.64 23.4685 11.788 23.6285 11.908C23.7965 12.028 23.9725 12.088 24.1565 12.088C24.5725 12.088 24.9965 11.82 25.4285 11.284C25.8605 10.748 26.1885 10.088 26.4125 9.304C26.4365 9.168 26.5085 9.084 26.6285 9.052Z" fill="white"/>
<path d="M6.616 21.432C6.616 22.088 6.32 22.64 5.728 23.088C5.136 23.528 4.456 23.748 3.688 23.748C2.928 23.748 2.3 23.552 1.804 23.16C1.308 22.76 1.06 22.384 1.06 22.032C1.06 21.792 1.132 21.672 1.276 21.672C1.404 21.672 1.656 21.864 2.032 22.248C2.176 22.384 2.368 22.512 2.608 22.632C2.856 22.752 3.116 22.812 3.388 22.812C3.948 22.812 4.444 22.668 4.876 22.38C5.316 22.092 5.536 21.78 5.536 21.444C5.536 21.228 5.392 20.952 5.104 20.616C4.816 20.28 4.496 19.964 4.144 19.668C3.8 19.364 3.484 19.04 3.196 18.696C2.908 18.352 2.764 18.08 2.764 17.88C2.764 17.68 2.804 17.468 2.884 17.244C2.964 17.02 3.052 16.856 3.148 16.752C3.46 16.408 3.944 16.092 4.6 15.804C5.264 15.516 5.82 15.372 6.268 15.372C6.5 15.372 6.696 15.448 6.856 15.6C7.016 15.752 7.096 15.912 7.096 16.08C7.096 16.16 7.012 16.224 6.844 16.272C6.676 16.32 6.42 16.384 6.076 16.464C5.74 16.536 5.44 16.624 5.176 16.728C4.256 17.08 3.796 17.42 3.796 17.748C3.796 17.924 4.264 18.416 5.2 19.224C5.56 19.536 5.884 19.9 6.172 20.316C6.468 20.724 6.616 21.096 6.616 21.432ZM9.091 22.62C9.091 22.772 9.179 22.848 9.355 22.848C9.659 22.848 10.027 22.764 10.459 22.596C10.899 22.42 11.143 22.332 11.191 22.332C11.335 22.332 11.407 22.408 11.407 22.56C11.407 22.792 11.167 23.06 10.687 23.364C10.215 23.668 9.783 23.82 9.391 23.82C9.007 23.82 8.687 23.716 8.431 23.508C8.175 23.292 8.047 23.072 8.047 22.848C8.047 22.624 8.095 22.34 8.191 21.996C8.287 21.644 8.423 21.184 8.599 20.616C8.783 20.04 8.927 19.564 9.031 19.188C8.655 19.276 8.403 19.32 8.275 19.32C8.147 19.32 8.019 19.256 7.891 19.128C7.771 18.992 7.711 18.864 7.711 18.744C7.711 18.552 8.231 18.368 9.271 18.192C9.415 17.528 9.487 16.94 9.487 16.428C9.487 16.188 9.567 16.068 9.727 16.068C9.863 16.068 10.031 16.156 10.231 16.332C10.431 16.5 10.531 16.692 10.531 16.908C10.531 17.124 10.463 17.504 10.327 18.048C10.783 18.008 11.147 17.988 11.419 17.988C11.899 17.988 12.139 18.092 12.139 18.3C12.139 18.42 12.007 18.52 11.743 18.6C11.487 18.68 10.943 18.804 10.111 18.972C9.943 19.604 9.731 20.328 9.475 21.144C9.219 21.952 9.091 22.444 9.091 22.62ZM16.6356 18.204C16.6676 18.076 16.6996 17.988 16.7316 17.94C16.7636 17.892 16.8316 17.868 16.9356 17.868C17.0476 17.868 17.1796 17.972 17.3316 18.18C17.4916 18.388 17.5716 18.588 17.5716 18.78C17.5716 18.884 17.3956 19.5 17.0436 20.628C16.6916 21.756 16.4196 22.652 16.2276 23.316C16.1316 23.652 15.9956 23.82 15.8196 23.82C15.7156 23.82 15.6276 23.776 15.5556 23.688C15.4836 23.6 15.4476 23.44 15.4476 23.208C15.4476 22.976 15.5396 22.556 15.7236 21.948C15.3876 22.492 15.0236 22.94 14.6316 23.292C14.2396 23.644 13.8796 23.82 13.5516 23.82C13.2316 23.82 12.9276 23.668 12.6396 23.364C12.3516 23.06 12.2076 22.748 12.2076 22.428C12.2076 21.668 12.4276 20.72 12.8676 19.584C13.3156 18.44 13.6876 17.868 13.9836 17.868C14.1276 17.868 14.2516 17.936 14.3556 18.072C14.4676 18.2 14.5236 18.348 14.5236 18.516C14.5236 18.588 14.4156 18.848 14.1996 19.296C13.9836 19.736 13.7676 20.256 13.5516 20.856C13.3356 21.448 13.2276 21.968 13.2276 22.416C13.2276 22.544 13.2676 22.652 13.3476 22.74C13.4276 22.82 13.5236 22.86 13.6356 22.86C13.9396 22.86 14.2996 22.592 14.7156 22.056C15.1396 21.52 15.5236 20.896 15.8676 20.184C16.2116 19.472 16.4676 18.812 16.6356 18.204ZM23.301 14.508C23.429 14.508 23.585 14.628 23.769 14.868C23.961 15.1 24.057 15.32 24.057 15.528C24.057 15.736 23.957 16.328 23.757 17.304C23.557 18.272 23.325 19.276 23.061 20.316C22.485 22.652 22.105 23.82 21.921 23.82C21.809 23.82 21.685 23.752 21.549 23.616C21.421 23.472 21.357 23.348 21.357 23.244C21.357 23.14 21.385 22.932 21.441 22.62C20.657 23.42 19.973 23.82 19.389 23.82C19.037 23.82 18.717 23.66 18.429 23.34C18.149 23.02 18.009 22.688 18.009 22.344C18.009 21.848 18.141 21.26 18.405 20.58C18.677 19.892 19.065 19.268 19.569 18.708C20.073 18.148 20.609 17.868 21.177 17.868C21.745 17.868 22.141 18.208 22.365 18.888C22.773 17.192 22.997 15.852 23.037 14.868C23.037 14.628 23.125 14.508 23.301 14.508ZM21.981 20.4C21.981 19.968 21.905 19.604 21.753 19.308C21.609 19.012 21.433 18.864 21.225 18.864C20.881 18.864 20.529 19.076 20.169 19.5C19.809 19.924 19.521 20.412 19.305 20.964C19.097 21.508 18.993 21.98 18.993 22.38C18.993 22.524 19.045 22.64 19.149 22.728C19.253 22.816 19.377 22.86 19.521 22.86C19.833 22.86 20.253 22.636 20.781 22.188C21.317 21.74 21.705 21.212 21.945 20.604L21.981 20.46V20.4ZM28.8453 17.868C28.9733 17.868 29.1093 17.964 29.2533 18.156C29.4053 18.34 29.4813 18.548 29.4813 18.78C29.4813 18.94 29.3173 19.484 28.9893 20.412C28.6613 21.34 28.4373 21.972 28.3173 22.308C28.2053 22.636 28.0493 23.076 27.8493 23.628C27.6573 24.172 27.4693 24.704 27.2853 25.224C26.8853 26.368 26.2853 26.94 25.4853 26.94C25.0293 26.94 24.5933 26.8 24.1772 26.52C23.7612 26.248 23.5532 25.964 23.5532 25.668C23.5532 25.556 23.6052 25.432 23.7092 25.296C23.8053 25.16 23.8893 25.092 23.9613 25.092C24.0333 25.092 24.1493 25.18 24.3093 25.356C24.7733 25.884 25.1693 26.148 25.4973 26.148C25.7453 26.148 25.9693 25.928 26.1693 25.488C26.3693 25.056 26.5573 24.564 26.7333 24.012C26.9173 23.468 27.0173 23.168 27.0333 23.112C27.0573 23.056 27.0813 22.984 27.1053 22.896C27.1373 22.808 27.1653 22.728 27.1893 22.656C26.6213 23.432 26.0613 23.82 25.5093 23.82C25.1733 23.82 24.8613 23.664 24.5732 23.352C24.2933 23.04 24.1533 22.672 24.1533 22.248C24.1533 21.824 24.2573 21.252 24.4653 20.532C24.6733 19.812 24.9173 19.188 25.1973 18.66C25.4773 18.132 25.7053 17.868 25.8813 17.868C26.0253 17.868 26.1573 17.936 26.2773 18.072C26.4053 18.2 26.4693 18.332 26.4693 18.468C26.4693 18.604 26.3653 18.888 26.1573 19.32C25.5093 20.648 25.1853 21.68 25.1853 22.416C25.1853 22.544 25.2253 22.652 25.3053 22.74C25.3853 22.82 25.4813 22.86 25.5933 22.86C25.8813 22.86 26.2253 22.604 26.6253 22.092C27.0253 21.58 27.3933 20.972 27.7293 20.268C28.0093 19.676 28.3013 18.92 28.6053 18C28.6373 17.912 28.7173 17.868 28.8453 17.868Z" fill="white"/>
</svg>
